<svg width="784" height="240" viewBox="0 0 784 240" fill="none" xmlns="http://www.w3.org/2000/svg">
<g clip-path="url(#clip0_485_30)">
<path d="M156.907 65.1998H115.882C109.843 65.1998 104.76 60.7113 103.984 54.7375L98.6872 13.5153C97.7631 6.35337 103.357 6.10352e-05 110.585 6.10352e-05H151.609C157.649 6.10352e-05 162.732 4.48863 163.507 10.4624L168.805 51.6846C169.729 58.8465 164.135 65.1998 156.907 65.1998Z" fill="#E3E812"/>
<path d="M71.3402 239.231H30.316C24.2762 239.231 19.1936 234.742 18.418 228.769L13.1208 187.546C12.1967 180.384 17.7909 174.031 25.0188 174.031H66.043C72.0828 174.031 77.1654 178.52 77.941 184.493L83.2382 225.716C84.1623 232.878 78.5681 239.231 71.3402 239.231Z" fill="#E3E812"/>
<path d="M8.7816 161.737L0.266515 121.423C-1.05365 115.152 2.77483 108.964 8.97962 107.347L158.39 68.3851C165.007 66.6523 171.723 70.8109 173.142 77.5107L181.658 117.825C182.978 124.096 179.149 130.284 172.944 131.902L23.5345 170.863C16.9171 172.596 10.2008 168.437 8.7816 161.737Z" fill="#4E941A"/>
<path d="M607.97 212.927V168.112H619.29V212.927H607.97ZM614.418 194.734V185.254H639.504V194.734H614.418ZM635.401 212.927V168.112H646.721V212.927H635.401Z" fill="white"/>
<path d="M651.386 212.927L668.77 168.112H679.706L696.889 212.927H685.063L672.106 175.268H676.209L662.928 212.927H651.365H651.386ZM661.938 205.084V196.109H686.64V205.084H661.938Z" fill="white"/>
<path d="M720.521 213.615C717.104 213.615 713.951 213.029 711.04 211.877C708.129 210.724 705.602 209.087 703.419 207.005C701.256 204.923 699.558 202.457 698.366 199.647C697.173 196.837 696.566 193.764 696.566 190.49C696.566 187.215 697.173 184.102 698.366 181.292C699.558 178.482 701.256 176.057 703.419 173.995C705.582 171.933 708.109 170.316 711 169.123C713.89 167.951 717.003 167.344 720.379 167.344C723.917 167.344 727.09 167.91 729.92 169.022C732.75 170.134 735.237 171.69 737.379 173.671L729.799 181.252C728.748 180.079 727.434 179.149 725.877 178.462C724.321 177.795 722.481 177.451 720.379 177.451C718.56 177.451 716.922 177.755 715.427 178.341C713.931 178.927 712.637 179.796 711.545 180.969C710.454 182.121 709.605 183.516 708.978 185.113C708.372 186.71 708.068 188.509 708.068 190.49C708.068 192.471 708.372 194.27 708.978 195.867C709.585 197.464 710.434 198.838 711.545 200.011C712.637 201.163 713.931 202.052 715.427 202.659C716.922 203.265 718.58 203.568 720.379 203.568C722.481 203.568 724.341 203.245 725.938 202.598C727.535 201.951 728.91 201.001 730.042 199.788L737.622 207.369C735.439 209.35 732.953 210.886 730.203 211.978C727.434 213.069 724.2 213.615 720.5 213.615H720.521Z" fill="white"/>
<path d="M742.513 212.927V168.112H753.833V212.927H742.513ZM769.681 212.927L752.742 189.539L768.974 168.112H782.76L764.244 191.379V187.397L783.448 212.927H769.661H769.681Z" fill="white"/>
<path d="M219.605 137.544V41.0069H243.979V137.528H219.605V137.544ZM236.091 137.544V116.586H259.227C264.656 116.586 269.409 115.547 273.452 113.451C277.478 111.372 280.597 108.269 282.775 104.127C284.937 100.018 286.043 94.9852 286.043 89.094C286.043 83.2028 284.921 78.3676 282.709 74.3246C280.481 70.2981 277.379 67.2122 273.386 65.133C269.392 63.0372 264.656 61.9976 259.227 61.9976H235.002V41.0399H259.359C266.818 41.0399 273.65 42.195 279.92 44.5053C286.191 46.8156 291.62 50.1161 296.241 54.3736C300.862 58.6311 304.492 63.7303 307.066 69.605C309.657 75.5128 310.944 82.0476 310.944 89.226C310.944 96.4044 309.657 103.055 307.066 108.979C304.492 114.887 300.862 119.953 296.241 124.21C291.62 128.468 286.191 131.768 279.986 134.079C273.765 136.389 266.983 137.544 259.623 137.544H236.091Z" fill="#4E941A"/>
<path d="M323.208 137.544V41.0069H347.581V137.528H323.208V137.544ZM342.548 61.585V41.0234H394.018V61.585H342.548ZM342.548 98.3352V78.3181H389.926V98.3352H342.548ZM342.548 137.561V116.999H394.843V137.561H342.548Z" fill="white"/>
<path d="M453.769 139.03C446.426 139.03 439.611 137.776 433.34 135.284C427.069 132.792 421.607 129.294 416.937 124.805C412.267 120.316 408.636 115.019 406.045 108.963C403.471 102.874 402.167 96.3059 402.167 89.21C402.167 82.1141 403.455 75.4473 406.045 69.391C408.636 63.3513 412.267 58.1201 416.937 53.681C421.607 49.242 427.069 45.727 433.29 43.1857C439.512 40.6444 446.244 39.3737 453.505 39.3737C460.766 39.3737 467.978 40.5784 474.067 42.9877C480.156 45.3805 485.503 48.7304 490.124 52.9879L473.803 69.325C471.542 66.7837 468.72 64.7869 465.354 63.3183C462.004 61.8661 458.043 61.14 453.505 61.14C449.594 61.14 446.03 61.7836 442.812 63.0377C439.594 64.3084 436.789 66.1896 434.429 68.6979C432.069 71.2063 430.237 74.1601 428.917 77.6256C427.597 81.0745 426.937 84.936 426.937 89.21C426.937 93.4841 427.597 97.3291 428.917 100.778C430.221 104.227 432.053 107.214 434.429 109.706C436.789 112.214 439.578 114.112 442.812 115.432C446.03 116.752 449.594 117.396 453.505 117.396C458.027 117.396 462.037 116.703 465.486 115.3C468.918 113.897 471.889 111.884 474.348 109.227L490.668 125.581C485.948 129.838 480.618 133.172 474.678 135.515C468.737 137.875 461.773 139.046 453.786 139.046L453.769 139.03Z" fill="white"/>
<path d="M544.317 139.31C536.859 139.31 530.027 138.04 523.756 135.498C517.485 132.957 512.023 129.409 507.353 124.871C502.683 120.349 499.036 115.003 496.395 108.881C493.755 102.742 492.451 96.1574 492.451 89.0615C492.451 81.9656 493.739 75.4308 496.329 69.391C498.904 63.3513 502.534 58.0706 507.155 53.5325C511.775 49.0109 517.221 45.4795 523.475 42.9877C529.746 40.4959 536.594 39.2417 544.037 39.2417C551.479 39.2417 558.328 40.4959 564.599 42.9877C570.853 45.4795 576.315 49.0109 580.936 53.5325C585.556 58.0706 589.17 63.3843 591.761 69.457C594.335 75.5463 595.655 82.1141 595.655 89.21C595.655 96.3059 594.368 102.874 591.761 108.963C589.17 115.036 585.573 120.382 580.936 124.937C576.299 129.525 570.886 133.073 564.665 135.564C558.443 138.056 551.661 139.31 544.301 139.31H544.317ZM544.037 117.528C549.466 117.528 554.202 116.339 558.196 113.98C562.173 111.62 565.275 108.303 567.453 104.045C569.632 99.7879 570.721 94.7877 570.721 89.078C570.721 84.9195 570.11 81.091 568.889 77.6421C567.668 74.2096 565.886 71.2228 563.509 68.7144C561.15 66.2226 558.344 64.3084 555.06 62.9222C551.793 61.5525 548.113 60.8924 544.037 60.8924C538.591 60.8924 533.872 62.0476 529.878 64.3579C525.885 66.6682 522.799 69.9521 520.62 74.2261C518.459 78.4837 517.353 83.4508 517.353 89.0615C517.353 93.4181 517.98 97.3456 519.185 100.844C520.406 104.342 522.205 107.346 524.564 109.838C526.924 112.346 529.73 114.244 533.014 115.564C536.281 116.884 539.961 117.544 544.037 117.544V117.528Z" fill="white"/>
<path d="M607.883 137.544V41.0069H632.256V137.528H607.883V137.544ZM624.368 137.544V116.586H647.504C652.934 116.586 657.686 115.547 661.729 113.451C665.756 111.372 668.875 108.269 671.053 104.127C673.215 100.018 674.32 94.9852 674.32 89.094C674.32 83.2028 673.198 78.3676 670.987 74.3246C668.759 70.2981 665.64 67.2122 661.663 65.133C657.67 63.0372 652.934 61.9976 647.504 61.9976H623.279V41.0399H647.636C655.095 41.0399 661.927 42.195 668.198 44.5053C674.452 46.8156 679.898 50.1161 684.519 54.3736C689.139 58.6311 692.77 63.7303 695.344 69.605C697.935 75.5128 699.222 82.0476 699.222 89.226C699.222 96.4044 697.935 103.055 695.344 108.979C692.77 114.887 689.139 119.953 684.519 124.21C679.898 128.468 674.469 131.768 668.264 134.079C662.043 136.389 655.26 137.544 647.9 137.544H624.368Z" fill="white"/>
<path d="M711.484 137.544V41.0069H735.858V137.528H711.484V137.544ZM730.824 61.585V41.0234H782.294V61.585H730.824ZM730.824 98.3352V78.3181H778.202V98.3352H730.824ZM730.824 137.561V116.999H783.119V137.561H730.824Z" fill="white"/>
</g>
<defs>
<clipPath id="clip0_485_30">
<rect width="783.47" height="239.231" fill="white"/>
</clipPath>
</defs>
</svg>
